<svg width="256" height="256" viewBox="0 0 256 256" fill="none" xmlns="http://www.w3.org/2000/svg">
  <path d="M255.153 37.938L134.463 247.971C132.102 252.9 124.301 251.102 124.301 245.709V165.255C124.301 160.59 120.661 156.95 115.996 156.95H44.0421C37.6922 156.95 33.913 150.07 37.7206 144.815L123.01 11.9729C127.34 5.39585 136.66 5.39585 140.99 11.9729L255.153 37.938Z" fill="#FFD859"/>
  <path d="M193.99 143.594L140.99 11.9729C136.66 5.39585 127.34 5.39585 123.01 11.9729L37.7206 144.815C33.913 150.07 37.6922 156.95 44.0421 156.95H115.996C120.661 156.95 124.301 160.59 124.301 165.255V245.709C124.301 251.102 132.102 252.9 134.463 247.971L193.99 143.594Z" fill="#FFD859"/>
</svg>
